Coordinates
version=1
nRows=17
nColumns=38
inDegrees=no

Units are S.I. units (second, meters, Newtons, ...)
If the header above contains a line with 'inDegrees', this indicates whether rotational values are in degrees (yes) or radians (no).

endheader
time	pelvis_tilt	pelvis_list	pelvis_rotation	pelvis_tx	pelvis_ty	pelvis_tz	hip_flexion_r	hip_adduction_r	hip_rotation_r	knee_angle_r	ankle_angle_r	subtalar_angle_r	mtp_angle_r	hip_flexion_l	hip_adduction_l	hip_rotation_l	knee_angle_l	ankle_angle_l	subtalar_angle_l	mtp_angle_l	lumbar_extension	lumbar_bending	lumbar_rotation	arm_flex_r	arm_add_r	arm_rot_r	elbow_flex_r	pro_sup_r	wrist_flex_r	wrist_dev_r	arm_flex_l	arm_add_l	arm_rot_l	elbow_flex_l	pro_sup_l	wrist_flex_l	wrist_dev_l
89.07	2.80573	1.39343	-1.23144	0.659514	0.232584	0.7795	0.515064	-0.32977	-0.350247	1.34164	0.430047	0	0	0.602262	-0.382877	-0.223476	1.37072	0.378639	0	0	-0.673811	0.0182392	0.0218905	0.676945	-0.497835	0.0887792	1.38679	0.872601	0	0	0.671776	-0.461175	0.0468315	1.57234	0.885953	0	0
89.08	2.80224	1.38897	-1.22691	0.659828	0.23172	0.773024	0.526086	-0.334562	-0.347769	1.36876	0.442498	0	0	0.62017	-0.390418	-0.213003	1.40139	0.385092	0	0	-0.683622	0.0199586	0.0206501	0.684136	-0.495861	0.0888895	1.38533	0.874724	0	0	0.677378	-0.461088	0.0437154	1.5725	0.888352	0	0
89.09	2.80078	1.38481	-1.2245	0.660095	0.230843	0.766534	0.537771	-0.340395	-0.344956	1.39621	0.453108	0	0	0.638156	-0.397514	-0.202329	1.43227	0.388944	0	0	-0.693351	0.0213269	0.0192439	0.691362	-0.494147	0.0897544	1.38397	0.876749	0	0	0.683447	-0.461482	0.0428957	1.57332	0.887096	0	0
89.1	2.79914	1.38117	-1.22252	0.660442	0.230024	0.759968	0.550596	-0.346622	-0.341597	1.42408	0.462362	0	0	0.655568	-0.405249	-0.193264	1.4618	0.393753	0	0	-0.702582	0.0222107	0.0183011	0.698375	-0.492597	0.0904735	1.38274	0.878517	0	0	0.689359	-0.462035	0.0420654	1.57418	0.886757	0	0
89.11	2.79574	1.37827	-1.22001	0.660887	0.229216	0.75323	0.565194	-0.352545	-0.337286	1.45235	0.470783	0	0	0.673072	-0.414164	-0.185666	1.49067	0.399392	0	0	-0.710797	0.0224878	0.0184854	0.705244	-0.491541	0.0910353	1.38183	0.88196	0	0	0.694832	-0.462269	0.0409445	1.57501	0.887321	0	0
89.12	2.7896	1.3756	-1.2156	0.661402	0.228444	0.746361	0.580451	-0.357942	-0.332866	1.48056	0.479052	0	0	0.690754	-0.424327	-0.178473	1.51937	0.405118	0	0	-0.718277	0.022787	0.0197296	0.712231	-0.490964	0.0914265	1.38098	0.884009	0	0	0.699898	-0.462174	0.0399807	1.57539	0.888402	0	0
89.13	2.78778	1.37151	-1.2147	0.661736	0.227662	0.739672	0.593011	-0.364716	-0.329634	1.50787	0.487284	0	0	0.706384	-0.433263	-0.170656	1.54706	0.411047	0	0	-0.727412	0.0236069	0.0204328	0.719629	-0.49084	0.0927855	1.37989	0.882754	0	0	0.705377	-0.461804	0.0390777	1.57495	0.889816	0	0
89.14	2.78804	1.36709	-1.21578	0.662042	0.226938	0.732972	0.6051	-0.371814	-0.326062	1.53491	0.49487	0	0	0.721493	-0.441673	-0.162565	1.57452	0.417082	0	0	-0.736756	0.0243144	0.0210783	0.726561	-0.490877	0.094342	1.37901	0.881178	0	0	0.711153	-0.461635	0.0386158	1.57435	0.890655	0	0
89.15	2.78986	1.36239	-1.21838	0.66238	0.226299	0.726259	0.617073	-0.378813	-0.321808	1.56214	0.502102	0	0	0.736066	-0.44966	-0.153999	1.60156	0.422735	0	0	-0.746212	0.0247781	0.0217921	0.733204	-0.491219	0.0955458	1.37778	0.878172	0	0	0.717246	-0.461875	0.0391336	1.57366	0.890578	0	0
89.16	2.79219	1.3575	-1.22121	0.66272	0.225722	0.719483	0.629148	-0.38563	-0.317097	1.58961	0.508888	0	0	0.750784	-0.457087	-0.144663	1.62849	0.427549	0	0	-0.755539	0.0253016	0.0225058	0.739489	-0.491947	0.0974524	1.37662	0.874019	0	0	0.723759	-0.462221	0.0405902	1.57219	0.89039	0	0
89.17	2.79558	1.35242	-1.22489	0.663041	0.2252	0.712671	0.64134	-0.392336	-0.311831	1.6172	0.515041	0	0	0.765545	-0.463567	-0.134733	1.65526	0.431709	0	0	-0.764726	0.025701	0.0230737	0.74575	-0.492856	0.0997149	1.37483	0.87081	0	0	0.730361	-0.46201	0.0419875	1.57023	0.889966	0	0
89.18	2.79945	1.34698	-1.22845	0.663306	0.224728	0.705888	0.652934	-0.398977	-0.306271	1.64441	0.520209	0	0	0.780064	-0.46886	-0.124227	1.68144	0.435719	0	0	-0.774062	0.0263724	0.0229881	0.752499	-0.493692	0.103057	1.37209	0.868102	0	0	0.736428	-0.461473	0.0426347	1.56852	0.889233	0	0
89.19	2.80493	1.34081	-1.233	0.663518	0.224307	0.699184	0.66363	-0.405953	-0.300292	1.67156	0.523599	0	0	0.79366	-0.473249	-0.113566	1.70717	0.439718	0	0	-0.784078	0.0272896	0.0223638	0.759342	-0.494267	0.106979	1.36896	0.87046	0	0	0.742168	-0.460707	0.0428636	1.56706	0.8889	0	0
89.2	2.80995	1.33503	-1.23664	0.66368	0.223918	0.692348	0.675339	-0.412988	-0.293319	1.69931	0.523599	0	0	0.808511	-0.477054	-0.101682	1.73382	0.442454	0	0	-0.79338	0.0285904	0.0213343	0.766502	-0.495086	0.112196	1.36588	0.863279	0	0	0.747532	-0.459772	0.0425221	1.56534	0.889428	0	0
89.21	2.81591	1.32868	-1.24126	0.66377	0.223539	0.685545	0.6869	-0.419737	-0.285262	1.72721	0.523599	0	0	0.822344	-0.480539	-0.0899172	1.76005	0.445892	0	0	-0.803186	0.0300621	0.0205389	0.773939	-0.496231	0.11618	1.36248	0.859565	0	0	0.753165	-0.45878	0.0427725	1.56296	0.889267	0	0
89.22	2.82028	1.32215	-1.24489	0.66391	0.223246	0.678675	0.698983	-0.425461	-0.276241	1.755	0.523599	0	0	0.836117	-0.484661	-0.0779831	1.78617	0.450158	0	0	-0.812705	0.0316219	0.0207403	0.780917	-0.497557	0.117706	1.35977	0.859997	0	0	0.759151	-0.457998	0.0441007	1.56019	0.888516	0	0
89.23	2.8227	1.31588	-1.24706	0.664087	0.223093	0.67167	0.711949	-0.430647	-0.266654	1.78285	0.523599	0	0	0.850681	-0.489363	-0.0655179	1.81256	0.453975	0	0	-0.822489	0.033068	0.0256883	0.799755	-0.476152	-0.0315052	1.31406	1.5708	0	0	0.768886	-0.454249	0.0499275	1.55501	0.889303	0	0
